<svg id="Layer_1" data-name="Layer 1" xmlns="http://www.w3.org/2000/svg" viewBox="0 0 960 480"><defs><style>.cls-1{fill:#060810;}.cls-2{fill:#eee;}.cls-3,.cls-5{fill:none;stroke:#eee;stroke-miterlimit:10;}.cls-3{stroke-width:6px;}.cls-4{opacity:0.7;}.cls-5{stroke-width:7px;}</style></defs><title>Artboard 1</title><rect class="cls-1" width="960" height="480"/><path class="cls-2" d="M314.2,218.6a22.1,22.1,0,1,1-22.1,22.1,22.1,22.1,0,0,1,22.1-22.1m0-7a29.1,29.1,0,1,0,29.1,29.1,29.1,29.1,0,0,0-29.1-29.1Z"/><path class="cls-2" d="M645,218.6a22.1,22.1,0,1,1-22.1,22.1A22.1,22.1,0,0,1,645,218.6m0-7a29.1,29.1,0,1,0,29.1,29.1A29.1,29.1,0,0,0,645,211.6Z"/><path class="cls-2" d="M452.9,218a7.6,7.6,0,1,1-7.5,7.5,7.5,7.5,0,0,1,7.5-7.5m0-7a14.6,14.6,0,1,0,14.6,14.5A14.5,14.5,0,0,0,452.9,211Z"/><path class="cls-2" d="M645,233.1a7.6,7.6,0,1,1-7.6,7.6,7.6,7.6,0,0,1,7.6-7.6m0-7a14.6,14.6,0,1,0,0,29.1,14.6,14.6,0,0,0,0-29.1Z"/><line class="cls-3" x1="343.3" y1="240.3" x2="615.9" y2="240.3"/><g class="cls-4"><circle class="cls-5" cx="196.3" cy="108.9" r="23.1"/><path class="cls-5" d="M215.2,124.1c7.7,9.1,12.6,29.3,12.6,73.6,0,0-5.3,6.8-31.5,6.8s-32.2-6.8-32.2-6.8c0-45.4,5.1-65.4,13.1-74.3"/></g><g class="cls-4"><polygon class="cls-2" points="789.8 107 766.9 113.7 766.9 116.5 789.8 109.9 789.8 107"/><polygon class="cls-2" points="789.8 122.9 766.9 128.1 766.9 130.9 789.8 125.7 789.8 122.9"/><polygon class="cls-2" points="789.8 138.7 766.9 142.6 766.9 145.4 789.8 141.5 789.8 138.7"/><polygon class="cls-2" points="789.8 154.5 766.9 157.1 766.9 159.9 789.8 157.3 789.8 154.5"/><polygon class="cls-2" points="789.8 170.3 766.9 171.6 766.9 174.4 789.8 173.1 789.8 170.3"/><rect class="cls-2" x="766.9" y="186.1" width="22.9" height="2.74"/><path class="cls-2" d="M867.5,134.5,841.6,125V101.7L799.1,86l-42.5,15.7V125l-25.9,9.5-1.7.6v66.5H869.2V135.1ZM756.6,196.3H734.3V138.8l22.3-8.2Zm39.4,0H761.9V105.4L796,92.8Zm67.9,0H841.6V130.6l22.3,8.2Z"/></g></svg>